<svg version="1.1" preserveAspectRatio="none" xmlns="http://www.w3.org/2000/svg" width="500" height="500" viewBox="0 0 500 500"><rect width="100%" height="100%" fill="#012B28" fill-opacity="1"/><svg viewBox="735.7612 498.8386 328.8975 248.3224" width="333" height="251.41984721683806" x="83.5px" y="124.2901px" xmlns="http://www.w3.org/2000/svg" xmlns:xlink="http://www.w3.org/1999/xlink" preserveAspectRatio="none"><defs></defs><style>.companyName {fill:#EBB42C;fill-opacity:1;}.icon2 {fill:#E7240E;fill-opacity:1;}.icon3 {fill:#B47049;fill-opacity:1;}.icon3-str {stroke:#B47049;stroke-opacity:1;}.text {fill:#EBB42C;fill-opacity:1;}</style><g opacity="1" transform="rotate(0 838.5093 735.161)">
<svg width="123.4013" height="12" x="838.5093" y="735.161" version="1.1" preserveAspectRatio="none" viewBox="4.32 -26.8 279.68 27.2">
  <g transform="matrix(1 0 0 1 0 0)" class="text"><path id="id-6izo4zJp8" d="M7.52-26.40L7.52 0L4.32 0L4.32-26.40L7.52-26.40Z M49.44-6.76Q48.20-3.40 45.36-1.50Q42.52 0.40 38.80 0.40L38.80 0.40Q35.08 0.40 32.32-1.26Q29.56-2.92 28.06-5.98Q26.56-9.04 26.56-13.20L26.56-13.20Q26.56-17.32 28.06-20.40Q29.56-23.48 32.32-25.14Q35.08-26.80 38.72-26.80L38.72-26.80Q42.52-26.80 45.10-25.24Q47.68-23.68 48.96-20.64L48.96-20.64L45.80-19.16Q44.92-21.48 43.24-22.64Q41.56-23.80 38.96-23.80L38.96-23.80Q36.24-23.80 34.20-22.54Q32.16-21.28 31.04-18.88Q29.92-16.48 29.92-13.20L29.92-13.20Q29.92-8.24 32.30-5.42Q34.68-2.60 38.80-2.60L38.80-2.60Q41.48-2.60 43.44-3.96Q45.40-5.32 46.24-7.96L46.24-7.96L49.44-6.76Z M70.80-3L86.72-3L86.72 0L67.60 0L67.60-26.40L86.12-26.40L86.12-23.40L70.80-23.40L70.80-14.88L82.72-14.88L82.72-11.88L70.80-11.88L70.80-3Z M125.80-6.76Q124.56-3.40 121.72-1.50Q118.88 0.40 115.16 0.40L115.16 0.40Q111.44 0.40 108.68-1.26Q105.92-2.92 104.42-5.98Q102.92-9.04 102.92-13.20L102.92-13.20Q102.92-17.32 104.42-20.40Q105.92-23.48 108.68-25.14Q111.44-26.80 115.08-26.80L115.08-26.80Q118.88-26.80 121.46-25.24Q124.04-23.68 125.32-20.64L125.32-20.64L122.16-19.16Q121.28-21.48 119.60-22.64Q117.92-23.80 115.32-23.80L115.32-23.80Q112.60-23.80 110.56-22.54Q108.52-21.28 107.40-18.88Q106.28-16.48 106.28-13.20L106.28-13.20Q106.28-8.24 108.66-5.42Q111.04-2.60 115.16-2.60L115.16-2.60Q117.84-2.60 119.80-3.96Q121.76-5.32 122.60-7.96L122.60-7.96L125.80-6.76Z M160.68 0L153.48-10.96L147.16-10.96L147.16 0L143.96 0L143.96-26.40L153.96-26.40Q158-26.40 160.44-24.32Q162.88-22.24 162.88-18.68L162.88-18.68Q162.88-15.88 161.32-13.96Q159.76-12.04 157.04-11.32L157.04-11.32L164.48 0L160.68 0ZM147.16-23.40L147.16-13.96L153.92-13.96Q159.52-13.96 159.52-18.68L159.52-18.68Q159.52-23.40 153.92-23.40L153.92-23.40L147.16-23.40Z M185.76-3L201.68-3L201.68 0L182.56 0L182.56-26.40L201.08-26.40L201.08-23.40L185.76-23.40L185.76-14.88L197.68-14.88L197.68-11.88L185.76-11.88L185.76-3Z M237.72 0L234.92-7.32L222.96-7.32L220.16 0L216.80 0L227.08-26.40L230.88-26.40L241.12 0L237.72 0ZM224.12-10.32L233.76-10.32L230.20-19.68L228.96-23.36L228.88-23.36L227.72-19.80L224.12-10.32Z M284-26.40L284 0L280.96 0L280.96-16.60L281.32-23.56L281.28-23.56L272.60 0L269.88 0L261.20-23.56L261.16-23.56L261.52-16.60L261.52 0L258.48 0L258.48-26.40L263.40-26.40L269.20-10.36L271.20-3.76L271.28-3.76L273.32-10.32L279.08-26.40L284-26.40Z"/></g>
</svg>
</g><g opacity="1" transform="rotate(0 735.7612 661.161)">
<svg width="328.8975" height="40" x="735.7612" y="661.161" version="1.1" preserveAspectRatio="none" viewBox="4.8 -28.48 238.11999999999998 28.96">
  <g transform="matrix(1 0 0 1 0 0)" class="companyName"><path id="id-D6z1nYkh6" d="M20.36-3.96L7.52-28L4.80-28L4.80 0L6.56 0L6.56-22.84L6.72-22.84L19.08 0.48L19.80 0.48L32.44-22.68L32.60-22.68L32.60 0L36.24 0L36.24-28L33.48-28L20.52-3.96L20.36-3.96Z M59.04-14L59.04-14Q59.04-11.76 59.90-9.22Q60.76-6.68 62.60-4.52Q64.44-2.36 67.28-0.94Q70.12 0.48 74.08 0.48L74.08 0.48Q76.76 0.48 78.94-0.18Q81.12-0.84 82.86-1.96Q84.60-3.08 85.88-4.54Q87.16-6 87.98-7.62Q88.80-9.24 89.22-10.88Q89.64-12.52 89.64-14L89.64-14Q89.64-16.24 88.72-18.78Q87.80-21.32 85.88-23.48Q83.96-25.64 81.02-27.06Q78.08-28.48 74.08-28.48L74.08-28.48Q70.12-28.48 67.28-27.08Q64.44-25.68 62.60-23.54Q60.76-21.40 59.90-18.84Q59.04-16.28 59.04-14ZM62.96-14L62.96-14Q62.96-16.80 63.82-19.14Q64.68-21.48 66.18-23.16Q67.68-24.84 69.72-25.78Q71.76-26.72 74.16-26.72L74.16-26.72Q76.52-26.72 78.62-25.78Q80.72-24.84 82.30-23.16Q83.88-21.48 84.80-19.14Q85.72-16.80 85.72-14L85.72-14Q85.72-11.20 84.80-8.86Q83.88-6.52 82.30-4.84Q80.72-3.16 78.62-2.22Q76.52-1.28 74.16-1.28L74.16-1.28Q71.76-1.28 69.72-2.22Q67.68-3.16 66.18-4.84Q64.68-6.52 63.82-8.86Q62.96-11.20 62.96-14Z M121.52-28L112.44-28L112.44 0L116.08 0L116.08-12.36L117.84-12.36Q118.96-12.36 119.70-12.16Q120.44-11.96 121.04-11.48Q121.64-11 122.16-10.24Q122.68-9.48 123.40-8.36L123.40-8.36L126.56-3.68Q127.16-2.76 127.74-2Q128.32-1.24 129-0.70Q129.68-0.16 130.54 0.16Q131.40 0.48 132.60 0.48L132.60 0.48Q133.48 0.48 134.04 0.40Q134.60 0.32 135.16 0L135.16 0L135.16-1.48Q134.96-1.44 134.76-1.42Q134.56-1.40 134.36-1.40L134.36-1.40Q133.52-1.40 132.88-1.64Q132.24-1.88 131.68-2.34Q131.12-2.80 130.60-3.46Q130.08-4.12 129.52-4.96L129.52-4.96Q127.84-7.40 126.92-8.86Q126-10.32 125.46-11.12Q124.92-11.92 124.58-12.28Q124.24-12.64 123.76-12.88L123.76-12.88L123.36-13.08L123.36-13.24Q125.28-13.36 126.66-14.08Q128.04-14.80 128.92-15.88Q129.80-16.96 130.20-18.22Q130.60-19.48 130.60-20.68L130.60-20.68Q130.60-21.76 130.18-23.04Q129.76-24.32 128.74-25.42Q127.72-26.52 125.96-27.26Q124.20-28 121.52-28L121.52-28ZM116.08-14.16L116.08-26.24L120.12-26.24Q121.64-26.24 122.86-25.80Q124.08-25.36 124.96-24.58Q125.84-23.80 126.30-22.72Q126.76-21.64 126.76-20.36L126.76-20.36Q126.76-19.28 126.34-18.18Q125.92-17.08 125.08-16.18Q124.24-15.28 123.02-14.72Q121.80-14.16 120.20-14.16L120.20-14.16L116.08-14.16Z M158.92-8.24L172.72-8.24L176.56 0L180.44 0L167.40-28L165.40-28L153.56 0L155.40 0L158.92-8.24ZM165.60-23.52L171.88-10.04L159.68-10.04L165.44-23.52L165.60-23.52Z M204.20-8.24L218-8.24L221.84 0L225.72 0L212.68-28L210.68-28L198.84 0L200.68 0L204.20-8.24ZM210.88-23.52L217.16-10.04L204.96-10.04L210.72-23.52L210.88-23.52Z"/></g>
</svg>
</g><g opacity="1" transform="rotate(0 850.21 498.8386)">
<svg width="100" height="102.3224" x="850.21" y="498.8386" version="1.1" preserveAspectRatio="none" viewBox="12.53125 14.362167358398438 71.86874389648438 73.53783416748047">
  <g transform="matrix(1 0 0 1 0 0)" class="companyName"><path d="M64.7,23.1v-3.1c0-0.6-0.4-1-1-1s-1,0.4-1,1v3.1c0,0.6,0.4,1,1,1S64.7,23.6,64.7,23.1z"></path><path d="M65.5,35.6c-0.6,0-1,0.4-1,1v3.1c0,0.6,0.4,1,1,1s1-0.4,1-1v-3.1C66.5,36,66,35.6,65.5,35.6z"></path><path d="M59.6,30.9L57,32.6c-0.5,0.3-0.6,0.9-0.3,1.4c0.2,0.3,0.5,0.5,0.8,0.5c0.2,0,0.4-0.1,0.5-0.2l2.6-1.7  c0.5-0.3,0.6-0.9,0.3-1.4C60.7,30.7,60,30.6,59.6,30.9z"></path><path d="M79.3,34.6c-0.3-0.5-0.9-0.6-1.4-0.3l-2.6,1.7c-0.5,0.3-0.6,0.9-0.3,1.4c0.2,0.3,0.5,0.5,0.8,0.5c0.2,0,0.4-0.1,0.5-0.2  L79,36C79.4,35.7,79.6,35.1,79.3,34.6z"></path><path d="M58.1,25.4c0-0.6-0.4-1-1-1h-3.1c-0.6,0-1,0.4-1,1s0.4,1,1,1h3.1C57.6,26.4,58.1,25.9,58.1,25.4z"></path><path d="M73.1,43.2H70c-0.6,0-1,0.4-1,1s0.4,1,1,1h3.1c0.6,0,1-0.4,1-1S73.7,43.2,73.1,43.2z"></path><path d="M64.8,27.9c-0.4-0.4-1-0.5-1.4-0.1c-0.4,0.4-0.5,1-0.1,1.4l2,2.4c0.2,0.2,0.5,0.4,0.8,0.4c0.2,0,0.5-0.1,0.6-0.2  c0.4-0.4,0.5-1,0.1-1.4L64.8,27.9z"></path><path d="M82.3,16.6c-2.6-2.6-6.7-2.7-9.5-0.3c-7.5-3.6-16.4-2.1-22.4,3.8c-1.2,1.2-2.3,2.6-3.1,4.1c-2.6-0.4-5.1,0.5-7,2.4  c-2.5,2.5-3,6.1-1.8,9.1L12.7,85.7c-0.3,0.6-0.2,1.3,0.3,1.8c0.3,0.3,0.7,0.4,1.1,0.4c0.3,0,0.5-0.1,0.8-0.2l48.4-27.5  c1,0.4,2.1,0.7,3.2,0.7c2.1,0,4.3-0.8,5.9-2.4c2.1-2.1,2.9-5,2.2-7.8c1.4-0.8,2.6-1.8,3.7-2.9c5.7-5.7,7.3-14.3,4.2-21.6  c1.2-1.3,1.9-3,1.9-4.8C84.3,19.6,83.6,17.9,82.3,16.6z M80.9,18c0.9,0.9,1.4,2.2,1.4,3.5S81.8,24,80.9,25c-0.1,0.1-0.2,0.2-0.3,0.3  c0,0,0,0,0,0c-0.5,0.4-1,0.7-1.6,0.9c0,0-0.1,0-0.1,0c-0.2,0.1-0.5,0.1-0.7,0.2c-0.1,0-0.2,0-0.3,0c-0.2,0-0.4,0-0.6,0  c-0.2,0-0.3,0-0.5,0c-0.1,0-0.3,0-0.4-0.1c-0.2,0-0.4-0.1-0.6-0.2c-0.1,0-0.2-0.1-0.3-0.1c-0.2-0.1-0.4-0.2-0.6-0.3  c-0.1,0-0.1-0.1-0.2-0.1c-0.3-0.2-0.5-0.4-0.8-0.6c-0.4-0.4-0.6-0.8-0.8-1.2c-0.1-0.1-0.2-0.3-0.2-0.4c-0.1-0.2-0.1-0.3-0.1-0.5  c0-0.1-0.1-0.3-0.1-0.4c0-0.2,0-0.3-0.1-0.5c0-0.1,0-0.3,0-0.4c0-0.2,0-0.5,0.1-0.7c0-0.1,0-0.2,0-0.2c0.1-0.3,0.1-0.6,0.2-0.9  c0,0,0,0,0,0c0.2-0.6,0.6-1.1,1-1.6c0,0,0,0,0,0c0,0,0.1-0.1,0.1-0.1c1-1,2.2-1.4,3.5-1.4C78.6,16.5,79.9,17,80.9,18z M40.3,38.2  c1.5,1.5,3.5,2.3,5.5,2.4c0.2,0.5,0.4,0.9,0.6,1.4l-1.7,3.4l-12.6,7.2l7.7-14.9C39.9,37.8,40.1,38,40.3,38.2z M51.2,52.3l-11.2,6.3  l6.1-11.8l2.3-1.3c0.6,0.8,1.2,1.6,2,2.3c0.7,0.7,1.4,1.3,2.2,1.9L51.2,52.3z M42.2,69.9L31,76.3l7.4-14.4l11.2-6.3l-7.3,14.2  C42.2,69.8,42.2,69.9,42.2,69.9z M30.4,55.7c0.1,0,0.2-0.1,0.3-0.1l12.3-7l-6.1,11.8l-12.6,7.2L30.4,55.7z M22.6,70.9l12.6-7.2  l-7.3,14.2c0,0.1,0,0.1,0,0.2l-12.7,7.2L22.6,70.9z M45.3,68.1l7.4-14.4l3.4-1.9c0.7,0.3,1.3,0.6,2,0.8c0,2.2,0.9,4.3,2.4,5.9  c0.2,0.2,0.4,0.4,0.7,0.6L45.3,68.1z M76.8,46.5c-1.1,1.1-2.5,2.1-3.9,2.9c-0.4,0.2-0.6,0.7-0.5,1.2c0.8,2.3,0.2,4.8-1.5,6.5  c-2.5,2.5-6.5,2.5-8.9,0c-1.3-1.3-2-3.2-1.8-5.1c0-0.5-0.3-0.9-0.7-1.1c-2.9-0.8-5.5-2.4-7.6-4.5c-2-2-3.5-4.4-4.3-7.1  c-0.1-0.4-0.5-0.7-1-0.7c0,0,0,0-0.1,0c-1.8,0.1-3.5-0.6-4.8-1.8c-2.5-2.5-2.5-6.5,0-8.9c1.5-1.5,3.7-2.2,5.9-1.7  c0.4,0.1,0.9-0.1,1.1-0.5c0.8-1.6,1.9-3,3.1-4.2c5.2-5.2,13-6.6,19.6-3.7c-0.6,1-1,2.1-1,3.2c0,0,0,0.1,0,0.1c0,0.1,0,0.2,0,0.3  c0,0.3,0,0.5,0,0.7c0,0,0,0,0,0.1c0,0.3,0.1,0.7,0.2,1c0,0,0,0.1,0,0.1c0.1,0.3,0.2,0.7,0.4,1c0,0.1,0,0.1,0.1,0.2  c0.2,0.3,0.3,0.6,0.5,0.9c0,0,0.1,0.1,0.1,0.1c0.2,0.3,0.5,0.6,0.7,0.9c0.2,0.2,0.5,0.5,0.8,0.7c0.1,0,0.1,0.1,0.2,0.1  c0.3,0.2,0.5,0.3,0.8,0.5c0.1,0,0.2,0.1,0.3,0.1c0.2,0.1,0.4,0.2,0.7,0.3c0.1,0,0.3,0.1,0.4,0.1c0.2,0.1,0.5,0.1,0.7,0.1  c0.1,0,0.2,0,0.3,0.1c0.3,0,0.5,0,0.8,0c0,0,0.1,0,0.1,0c0.1,0,0.1,0,0.2,0c1.1,0,2.1-0.3,3.1-0.9C83.3,34,81.8,41.5,76.8,46.5z"></path></g>
</svg>
</g></svg></svg>